<svg width="283" height="244" viewBox="0 0 283 244" fill="none" xmlns="http://www.w3.org/2000/svg">
<path d="M201.555 235.315C200.887 236.831 201.575 238.602 203.091 239.27C204.607 239.938 206.378 239.25 207.046 237.734L204.3 236.524L201.555 235.315ZM113.314 118.038L110.777 119.639L110.777 119.64L113.314 118.038ZM197.936 96.9693L194.973 96.503L194.972 96.5034L197.936 96.9693ZM44.8862 41.334C43.4564 42.1713 42.9761 44.0091 43.8134 45.4388C44.6506 46.8686 46.4884 47.3489 47.9181 46.5116L46.4021 43.9228L44.8862 41.334ZM223.441 232.424C224.942 231.723 225.591 229.938 224.891 228.437C224.19 226.935 222.405 226.286 220.903 226.987L222.172 229.706L223.441 232.424ZM203.645 238.354L201.11 239.959C201.918 241.234 203.546 241.711 204.914 241.072L203.645 238.354ZM194.655 219.359C193.628 218.059 191.741 217.837 190.441 218.864C189.141 219.891 188.919 221.777 189.946 223.078L192.3 221.218L194.655 219.359ZM204.3 236.524C207.046 237.734 207.046 237.732 207.047 237.731C207.047 237.73 207.048 237.728 207.049 237.726C207.051 237.722 207.053 237.717 207.056 237.711C207.061 237.698 207.069 237.68 207.079 237.656C207.1 237.609 207.129 237.541 207.168 237.452C207.244 237.274 207.354 237.015 207.495 236.676C207.776 236 208.179 235.01 208.674 233.74C209.663 231.2 211.018 227.534 212.497 223.002C215.45 213.949 218.908 201.397 220.902 187.444C224.863 159.719 223.161 125.512 198.914 102.751L196.86 104.938L194.807 107.126C216.832 127.8 218.849 159.385 214.962 186.595C213.032 200.109 209.674 212.31 206.793 221.142C205.353 225.553 204.037 229.113 203.083 231.563C202.606 232.788 202.22 233.735 201.955 234.371C201.823 234.689 201.721 234.929 201.653 235.088C201.619 235.167 201.593 235.226 201.577 235.264C201.569 235.283 201.563 235.297 201.559 235.306C201.557 235.31 201.556 235.313 201.555 235.314C201.555 235.315 201.555 235.315 201.554 235.316C201.555 235.315 201.555 235.315 204.3 236.524ZM196.86 104.938L198.914 102.751C175.029 80.3303 149.394 77.5715 131.36 83.8203C122.411 86.9211 115.229 92.2893 111.247 98.684C107.212 105.164 106.458 112.797 110.777 119.639L113.314 118.038L115.851 116.437C112.978 111.885 113.289 106.755 116.34 101.856C119.444 96.8713 125.373 92.2447 133.324 89.4896C149.091 84.0265 172.421 86.1112 194.807 107.126L196.86 104.938ZM113.314 118.038L110.777 119.64C114.867 126.115 122.193 130.871 130.622 133.715C139.098 136.576 148.999 137.617 158.663 136.401C178.028 133.963 196.992 122.291 200.9 97.4352L197.936 96.9693L194.972 96.5034C191.595 117.989 175.441 128.241 157.913 130.448C149.13 131.553 140.141 130.596 132.54 128.03C124.891 125.449 118.954 121.351 115.85 116.436L113.314 118.038ZM197.936 96.9693L200.9 97.4356C202.901 84.7128 197.867 72.3869 188.65 61.8549C179.435 51.3258 165.87 42.3633 150.164 36.1379C118.793 23.7037 78.082 21.8946 44.8862 41.334L46.4021 43.9228L47.9181 46.5116C79.1369 28.2299 117.837 29.7789 147.953 41.7157C162.99 47.6758 175.686 56.152 184.135 65.8065C192.582 75.4581 196.616 86.0607 194.973 96.503L197.936 96.9693ZM222.172 229.706L220.903 226.987L202.376 235.636L203.645 238.354L204.914 241.072L223.441 232.424L222.172 229.706ZM203.645 238.354C206.179 236.749 206.179 236.749 206.179 236.749C206.179 236.749 206.179 236.748 206.179 236.748C206.179 236.748 206.178 236.747 206.178 236.746C206.177 236.744 206.175 236.742 206.173 236.738C206.168 236.731 206.162 236.721 206.153 236.708C206.136 236.681 206.111 236.641 206.078 236.589C206.012 236.485 205.915 236.333 205.791 236.138C205.543 235.748 205.187 235.187 204.751 234.505C203.879 233.141 202.691 231.289 201.423 229.336C198.934 225.502 196.008 221.074 194.655 219.359L192.3 221.218L189.946 223.078C191.084 224.519 193.83 228.659 196.391 232.603C197.648 234.54 198.828 236.38 199.695 237.736C200.128 238.413 200.482 238.97 200.728 239.357C200.851 239.55 200.947 239.701 201.012 239.803C201.044 239.855 201.069 239.894 201.086 239.92C201.094 239.933 201.1 239.943 201.104 239.949C201.106 239.953 201.108 239.955 201.109 239.957C201.109 239.958 201.11 239.958 201.11 239.959C201.11 239.959 201.11 239.959 201.11 239.959C201.11 239.959 201.11 239.959 203.645 238.354Z" fill="#0195DF"/>
</svg>
