<svg width="139" height="27" viewBox="0 0 139 27" fill="none" xmlns="http://www.w3.org/2000/svg">
<g clip-path="url(#clip0_1452_1199)">
<path d="M5.19659 7.5073C6.58679 7.36078 7.26897 8.38175 8.39057 8.93294C11.0069 10.2202 13.8682 9.0969 16.5014 8.56316C20.2607 7.8015 22.2555 9.11899 22.4578 13.1517C22.6713 17.41 21.9745 23.358 18.2389 25.9197C15.3663 27.8896 12.705 26.7023 9.71447 25.9709C7.57353 25.4464 5.05386 25.0697 3.12646 23.9522C-0.513691 21.8416 -0.479975 16.3751 0.743897 12.7773C1.39798 10.854 2.99946 7.7387 5.19659 7.5073Z" fill="#0195DF"/>
<path d="M7.27234 3.96179C9.4425 3.56294 11.5351 5.7235 11.1946 7.95731C9.36495 8.67478 7.23751 7.10379 6.97452 5.17115C6.9453 4.95486 6.90709 4.34553 6.95991 4.16296C6.99475 4.04203 7.15996 3.98272 7.27122 3.96295L7.27234 3.96179Z" fill="#67BFEC"/>
<path d="M13.7348 2.62686C14.3867 2.48732 14.9104 3.00013 14.5609 3.65481C14.2765 4.18855 13.8843 4.59322 13.5989 5.21534C13.2437 5.98863 12.8807 7.60963 12.4784 8.18059C12.1187 8.69224 11.903 8.11779 11.8535 7.73638C11.7591 7.01193 11.9558 6.15608 12.148 5.45838C12.3356 4.77928 13.0144 2.78152 13.7337 2.62686H13.7348Z" fill="#67BFEC"/>
<path d="M131.399 25.5C130.889 25.5 130.389 25.42 129.919 25.27C128.619 24.84 127.499 23.78 126.849 22.38C125.949 20.43 125.719 17.64 126.249 14.93C126.609 13.06 127.759 10.75 129.879 9.85998C130.989 9.39998 132.199 9.45999 133.289 10.02C134.509 10.65 135.429 11.85 135.739 13.22C136.119 14.92 135.649 16.81 134.439 18.39C133.329 19.85 131.679 21.07 130.039 21.66L129.869 21.73C130.149 22.1 130.499 22.37 130.859 22.49C131.419 22.68 132.159 22.55 132.849 22.16C134.529 21.19 135.879 19.15 136.979 17.28L139.499 18.76C138.209 20.96 136.579 23.39 134.309 24.7C133.379 25.23 132.379 25.51 131.419 25.51L131.399 25.5ZM131.409 12.47C131.269 12.47 131.139 12.5 130.999 12.55C130.019 12.96 129.329 14.35 129.119 15.47C128.929 16.47 128.819 17.73 128.949 18.93L129.019 18.9C130.149 18.5 131.329 17.61 132.119 16.59C132.789 15.71 133.079 14.68 132.889 13.84C132.769 13.32 132.399 12.83 131.949 12.6C131.769 12.51 131.589 12.46 131.409 12.46V12.47Z" fill="#0195DF"/>
<path d="M69.3095 20.71C69.3095 23.61 67.3495 25.49 64.3295 25.49C62.6095 25.49 61.4395 24.59 61.0295 24.28C59.3895 23.03 58.8995 21.32 58.7695 20.78C59.5795 20.56 60.3795 20.35 61.1895 20.13C61.3895 20.64 61.9295 21.81 63.1295 22.44C63.7395 22.77 64.2095 22.8 64.3295 22.8C65.2895 22.8 66.4395 22.45 66.4395 20.79C66.4395 19.93 66.0695 19.22 64.2795 18.57C62.0095 17.74 59.8695 16.96 59.8695 14.03C59.8695 11.44 61.7895 9.57001 64.4395 9.57001C66.0895 9.57001 67.1895 10.5 67.5795 10.83C69.1195 12.14 69.4095 13.89 69.4795 14.37C68.4895 14.4 67.4995 14.43 66.5095 14.46C66.4495 14.19 66.1495 12.97 65.1495 12.46C65.0195 12.39 64.7395 12.25 64.3595 12.25C63.4395 12.25 62.7395 12.94 62.7395 13.84C62.7395 14.4 62.9895 15.06 64.8295 15.67C68.5595 16.9 69.3095 18.51 69.3095 20.7V20.71Z" fill="#0195DF"/>
<path d="M80.3886 20.71C80.3886 23.61 78.4286 25.49 75.4086 25.49C73.6886 25.49 72.5186 24.59 72.1086 24.28C70.4686 23.03 69.9786 21.32 69.8486 20.78C70.6586 20.56 71.4586 20.35 72.2686 20.13C72.4686 20.64 73.0086 21.81 74.2086 22.44C74.8186 22.77 75.2886 22.8 75.4086 22.8C76.3686 22.8 77.5186 22.45 77.5186 20.79C77.5186 19.93 77.1486 19.22 75.3586 18.57C73.0886 17.74 70.9486 16.96 70.9486 14.03C70.9486 11.44 72.8686 9.57001 75.5186 9.57001C77.1686 9.57001 78.2686 10.5 78.6586 10.83C80.1986 12.14 80.4886 13.89 80.5586 14.37C79.5686 14.4 78.5786 14.43 77.5886 14.46C77.5286 14.19 77.2286 12.97 76.2286 12.46C76.0986 12.39 75.8186 12.25 75.4386 12.25C74.5186 12.25 73.8186 12.94 73.8186 13.84C73.8186 14.4 74.0686 15.06 75.9086 15.67C79.6386 16.9 80.3886 18.51 80.3886 20.7V20.71Z" fill="#0195DF"/>
<path d="M39.1392 21.51C38.5692 22.21 37.9692 22.85 37.3292 23.42C36.0492 24.56 34.8092 25.22 33.5092 25.44C33.2092 25.49 32.9192 25.51 32.6192 25.51C31.3992 25.51 30.2092 25.1 29.3092 24.35C27.2892 22.65 26.5692 19.45 27.2492 15.1C27.4692 13.7 28.0792 11.76 29.7392 10.52C30.9292 9.61998 32.5292 9.32998 33.9092 9.74998C35.1392 10.13 36.0892 11.05 36.4992 12.27L33.6792 13.23C33.5692 12.91 33.3592 12.7 33.0392 12.6C32.5692 12.46 31.9692 12.58 31.5392 12.9C30.6292 13.58 30.3092 14.86 30.1992 15.57C29.6992 18.73 30.0792 21.1 31.2292 22.06C31.6892 22.44 32.3692 22.61 33.0192 22.5C33.7392 22.38 34.4992 21.96 35.3392 21.2C35.7292 20.86 36.0992 20.48 36.4492 20.07L39.1392 21.51Z" fill="#0195DF"/>
<path d="M45.6592 25.46C45.5092 25.47 45.3592 25.48 45.2092 25.48C45.1592 25.48 45.0992 25.48 45.0492 25.48C43.3692 25.43 41.7392 24.57 40.7892 23.22C40.1292 22.27 39.7892 21.14 39.7292 19.68C39.6892 18.78 39.7192 17.88 39.7292 17.01C39.7392 16.62 39.7492 16.23 39.7492 15.84C39.7492 15.13 39.7492 14.4 39.7392 13.7C39.7392 13.13 39.7192 12.56 39.7192 11.99V1H42.8292V11.97C42.8292 12.53 42.8292 13.09 42.8392 13.65C42.8492 14.37 42.8592 15.11 42.8492 15.84C42.8492 16.24 42.8392 16.64 42.8292 17.04C42.8092 17.88 42.7892 18.74 42.8292 19.58C42.8692 20.61 43.0792 21.36 43.4792 21.93C43.8192 22.42 44.3792 22.78 44.9092 22.88L45.6492 25.45L45.6592 25.46Z" fill="#0195DF"/>
<path d="M123.159 7.47V11.98C123.159 12.54 123.159 13.1 123.169 13.66C123.179 14.38 123.189 15.12 123.179 15.85C123.179 16.25 123.169 16.65 123.159 17.05C123.139 17.89 123.119 18.75 123.159 19.59C123.199 20.62 123.409 21.37 123.809 21.94C124.149 22.43 124.709 22.79 125.239 22.89L125.979 25.46C125.829 25.47 125.679 25.48 125.529 25.48C125.469 25.48 125.419 25.48 125.369 25.48C123.679 25.43 122.039 24.57 121.099 23.22C120.429 22.27 120.099 21.14 120.029 19.68C119.989 18.78 120.019 17.88 120.029 17.01C120.039 16.62 120.049 16.23 120.049 15.84C120.049 15.13 120.049 14.4 120.039 13.7C120.039 13.13 120.019 12.56 120.019 11.99V7.48H115.829V4.9H120.019V1H123.139V4.89H127.349V7.47H123.139H123.159Z" fill="#0195DF"/>
<path d="M104.239 25.21L100.979 25.14C101.049 22.04 101.099 16.12 100.809 13.58C100.789 13.41 100.739 12.95 100.559 12.8C100.379 12.65 99.9292 12.62 99.5792 12.74C99.1792 12.88 98.8992 13.26 98.5292 13.9C96.6792 17.09 95.8892 20.28 95.6192 21.33C95.2792 22.72 94.9692 24.14 94.7092 25.57L91.4192 25.28C91.4892 22.42 91.5492 16.32 91.2492 13.72C91.2292 13.55 91.1792 13.09 90.9992 12.94C90.8192 12.79 90.3592 12.76 90.0192 12.88C89.6192 13.02 89.3392 13.4 88.9592 14.04C87.1092 17.23 86.3092 20.42 86.0492 21.47C85.6992 22.86 85.3992 24.28 85.1392 25.71L81.9092 25.41V10.9H85.1692V14.24C85.4592 13.64 85.7892 13.02 86.1392 12.4C86.5492 11.69 87.3192 10.37 88.9292 9.80998C90.0492 9.40998 91.8192 9.33998 93.1192 10.47C94.2592 11.45 94.4192 12.83 94.4792 13.35C94.5092 13.67 94.5492 14.03 94.5792 14.42C94.9092 13.72 95.2792 12.99 95.6992 12.26C96.1092 11.55 96.8792 10.24 98.4792 9.66998C99.5992 9.26998 101.369 9.19998 102.679 10.33C103.819 11.31 103.979 12.69 104.039 13.21C104.419 16.56 104.249 24.34 104.229 25.22L104.239 25.21Z" fill="#0195DF"/>
<path d="M57.2994 18.48C57.2594 16.03 57.7294 13.46 58.1894 10.97L58.2994 10.37L54.7194 9.72001L54.6094 10.32C54.5794 10.46 54.5594 10.59 54.5394 10.73C54.2294 10.48 53.8894 10.27 53.5294 10.09C52.9594 9.81001 52.3394 9.64001 51.6994 9.59001C49.9494 9.44001 48.2594 10.17 47.1594 11.54C46.2694 12.67 45.7794 14.24 45.6894 16.34C45.6094 18.2 45.8594 20 46.4294 21.69C46.6894 22.46 47.1494 23.58 48.0794 24.38C48.8794 25.06 49.8694 25.41 50.8794 25.41C51.7394 25.41 52.6194 25.16 53.4294 24.66C53.8894 24.38 54.2894 24.05 54.6494 23.68C54.9394 24.44 55.2994 25.17 55.7294 25.88L58.8394 23.99C57.8394 22.35 57.3394 20.55 57.3094 18.48H57.2994ZM53.3994 19.89C53.2494 20.35 53.0694 20.8 52.8094 21.2C52.5094 21.67 52.1094 22.1 51.5894 22.31C51.0694 22.53 50.4394 22.5 49.9994 22.15C49.7494 21.95 49.5794 21.65 49.4394 21.36C49.1294 20.69 48.9394 19.96 48.8094 19.23C48.5794 17.99 48.5094 16.71 48.6994 15.46C48.8694 14.36 49.1994 13.17 50.3094 12.69C50.8794 12.44 51.5594 12.43 52.1394 12.68C53.1094 13.09 53.6794 14.13 53.8694 15.17C54.0594 16.21 53.9394 17.28 53.7594 18.32C53.6694 18.85 53.5594 19.38 53.3994 19.89Z" fill="#0195DF"/>
<path d="M117.409 18.48C117.369 16.03 117.839 13.46 118.299 10.97L118.409 10.37L114.829 9.72001L114.719 10.32C114.689 10.46 114.669 10.59 114.649 10.73C114.339 10.48 113.999 10.27 113.639 10.09C113.069 9.81001 112.449 9.64001 111.809 9.59001C110.059 9.44001 108.369 10.17 107.269 11.54C106.379 12.67 105.889 14.24 105.799 16.34C105.719 18.2 105.969 20 106.539 21.69C106.799 22.46 107.259 23.58 108.189 24.38C108.989 25.06 109.979 25.41 110.989 25.41C111.849 25.41 112.729 25.16 113.539 24.66C113.999 24.38 114.399 24.05 114.759 23.68C115.049 24.44 115.409 25.17 115.839 25.88L118.949 23.99C117.949 22.35 117.449 20.55 117.419 18.48H117.409ZM113.519 19.89C113.369 20.35 113.189 20.8 112.929 21.2C112.629 21.67 112.229 22.1 111.709 22.31C111.189 22.53 110.559 22.5 110.119 22.15C109.869 21.95 109.699 21.65 109.559 21.36C109.249 20.69 109.059 19.96 108.929 19.23C108.699 17.99 108.629 16.71 108.819 15.46C108.989 14.36 109.319 13.17 110.429 12.69C110.999 12.44 111.679 12.43 112.259 12.68C113.229 13.09 113.799 14.13 113.989 15.17C114.179 16.21 114.059 17.28 113.879 18.32C113.789 18.85 113.679 19.38 113.519 19.89Z" fill="#0195DF"/>
</g>
<defs>
<clipPath id="clip0_1452_1199">
<rect width="139" height="27" fill="white"/>
</clipPath>
</defs>
</svg>
